HIERARCHY
ROOT root
{
	OFFSET 0.000000 0.000000 0.000000
	CHANNELS 6 Xposition Yposition Zposition Zrotation Yrotation Xrotation
	JOINT lhip
	{
		OFFSET 0.058581 -0.082280 -0.017664
		CHANNELS 3 Zrotation Yrotation Xrotation
		JOINT lknee
		{
			OFFSET 0.043451 -0.386469 0.008037
			CHANNELS 3 Zrotation Yrotation Xrotation
			JOINT lankle
			{
				OFFSET -0.014790 -0.426874 -0.037428
				CHANNELS 3 Zrotation Yrotation Xrotation
				JOINT ltoe
				{
					OFFSET 0.041054 -0.060286 0.122042
					CHANNELS 3 Zrotation Yrotation Xrotation
					End Site
					{
						OFFSET 0.000000 0.000000 0.000000
					}
				}
			}
		}
	}
	JOINT rhip
	{
		OFFSET -0.060310 -0.090513 -0.013543
		CHANNELS 3 Zrotation Yrotation Xrotation
		JOINT rknee
		{
			OFFSET -0.043257 -0.383688 -0.004843
			CHANNELS 3 Zrotation Yrotation Xrotation
			JOINT rankle
			{
				OFFSET 0.019056 -0.420046 -0.034562
				CHANNELS 3 Zrotation Yrotation Xrotation
				JOINT rtoe
				{
					OFFSET -0.034840 -0.062106 0.130323
					CHANNELS 3 Zrotation Yrotation Xrotation
					End Site
					{
						OFFSET 0.000000 0.000000 0.000000
					}
				}
			}
		}
	}
	JOINT lowerback
	{
		OFFSET 0.004439 0.124404 -0.038385
		CHANNELS 3 Zrotation Yrotation Xrotation
		JOINT upperback
		{
			OFFSET 0.004488 0.137956 0.026820
			CHANNELS 3 Zrotation Yrotation Xrotation
			JOINT chest
			{
				OFFSET -0.002265 0.056032 0.002855
				CHANNELS 3 Zrotation Yrotation Xrotation
				JOINT lowerneck
				{
					OFFSET -0.013390 0.211636 -0.033468
					CHANNELS 3 Zrotation Yrotation Xrotation
					JOINT upperneck
					{
						OFFSET 0.010113 0.088937 0.050410
						CHANNELS 3 Zrotation Yrotation Xrotation
						End Site
						{
							OFFSET 0.000000 0.000000 0.000000
						}
					}
				}
				JOINT lclavicle
				{
					OFFSET 0.071702 0.114000 -0.018898
					CHANNELS 3 Zrotation Yrotation Xrotation
					JOINT lshoulder
					{
						OFFSET 0.122921 0.045205 -0.019046
						CHANNELS 3 Zrotation Yrotation Xrotation
						JOINT lelbow
						{
							OFFSET 0.255332 -0.015649 -0.022946
							CHANNELS 3 Zrotation Yrotation Xrotation
							JOINT lwrist
							{
								OFFSET 0.265709 0.012698 -0.007375
								CHANNELS 3 Zrotation Yrotation Xrotation
								End Site
								{
									OFFSET 0.000000 0.000000 0.000000
								}
							}
						}
					}
				}
				JOINT rclavicle
				{
					OFFSET -0.082954 0.112472 -0.023707
					CHANNELS 3 Zrotation Yrotation Xrotation
					JOINT rshoulder
					{
						OFFSET -0.113228 0.046853 -0.008472
						CHANNELS 3 Zrotation Yrotation Xrotation
						JOINT relbow
						{
							OFFSET -0.260127 -0.014369 -0.031269
							CHANNELS 3 Zrotation Yrotation Xrotation
							JOINT rwrist
							{
								OFFSET -0.269108 0.006794 -0.006027
								CHANNELS 3 Zrotation Yrotation Xrotation
								End Site
								{
									OFFSET 0.000000 0.000000 0.000000
								}
							}
						}
					}
				}
			}
		}
	}
}
MOTION
Frames: 8
Frame Time: 0.033333
0.444239 0.174984 0.993158 89.385350 2.768634 92.950817 4.699649 3.919973 -1.419388 3.067486 -3.113197 -5.473822 -0.569142 9.974311 -3.772965 0.000000 -0.000000 0.000000 -1.592872 -1.597329 -4.838159 -1.297905 3.124996 1.474222 4.604415 -5.265542 -3.887916 0.000000 -0.000000 0.000000 -1.240300 0.630025 1.443664 2.618089 -4.126167 5.330712 -0.425518 2.408148 -6.035302 -0.059560 -14.907912 9.690405 10.461324 -16.035966 -11.637583 -22.544953 -0.341522 -3.058255 -60.526988 -6.463438 21.835320 8.842028 -15.339979 6.184107 -9.280505 -6.780498 13.446971 22.226791 7.399109 -1.447388 55.569549 4.768876 17.850506 -3.580777 13.625490 6.801042 5.242800 3.080325 8.307465 
0.444238 0.174558 0.992973 89.428108 2.835856 92.893668 4.783944 3.902407 -1.297705 3.127347 -3.220143 -5.606478 -0.531868 10.021706 -3.711792 0.000000 -0.000000 0.000000 -1.484963 -1.555192 -4.807824 -1.302225 3.091273 1.544608 4.675920 -5.302073 -3.863283 0.000000 -0.000000 0.000000 -1.413364 0.649489 1.700005 2.483431 -3.998929 4.823720 -0.469512 2.316618 -5.846160 0.192973 -14.683202 9.678439 10.510268 -15.822034 -11.529156 -22.305279 -0.396598 -3.225443 -60.549128 -6.294340 21.944690 8.991894 -15.236378 6.343087 -9.109607 -6.800429 13.400151 22.384610 7.636004 -1.227397 55.765881 4.778660 17.944250 -3.621825 13.900330 6.733855 5.207902 3.229971 8.170459 
0.444407 0.174222 0.992966 89.437253 2.913619 92.964663 4.869123 3.872539 -1.356649 3.169418 -3.173459 -5.620698 -0.553232 10.040964 -3.709519 0.000000 -0.000000 0.000000 -1.512640 -1.607311 -5.157005 -1.010265 2.836204 2.126792 4.732707 -5.043990 -3.975063 0.000000 -0.000000 0.000000 -1.582516 0.635888 1.251638 2.376084 -3.898095 5.050120 -0.525940 2.034238 -5.694864 0.540786 -14.112433 9.774286 10.439788 -15.786871 -11.696473 -22.326693 0.020248 -3.905922 -60.581865 -6.501223 22.078756 9.169010 -14.367266 6.637949 -9.628459 -7.001475 13.713448 22.777697 7.854563 -0.662219 55.566633 5.722311 18.252505 -3.245233 13.581922 6.796401 5.434708 3.311594 8.240355 
0.445029 0.173926 0.992844 89.496196 2.829154 93.390389 4.757198 3.685603 -1.738455 3.210950 -3.110772 -5.688742 -0.578295 10.184509 -3.714829 0.000000 -0.000000 0.000000 -1.327841 -1.490313 -5.157516 -1.368204 3.187613 1.318904 4.657095 -5.492855 -3.790988 0.000000 -0.000000 0.000000 -1.759231 1.039776 0.553215 2.082408 -3.667535 5.415965 -0.867809 1.605008 -6.122549 0.940086 -13.745950 9.773178 10.178799 -15.858989 -11.522285 -22.220430 0.560395 -4.402728 -60.359141 -6.740348 22.420098 9.133534 -14.119410 7.252676 -10.556328 -6.987740 14.228503 23.571006 7.768372 -0.189197 55.304645 6.545643 18.717447 -2.644141 13.126669 7.142409 6.027487 3.252091 8.514287 
0.445220 0.174050 0.992688 89.415240 2.799985 93.382753 4.713075 3.677094 -1.660015 3.229241 -3.095249 -5.766032 -0.554360 10.223333 -3.719486 0.000000 -0.000000 0.000000 -1.366095 -1.471512 -5.144264 -1.361931 3.208230 1.304881 4.636225 -5.456645 -3.788796 0.000000 -0.000000 0.000000 -1.766260 1.134013 0.461638 1.982164 -3.550715 5.441943 -0.967538 1.599425 -6.151004 0.878273 -13.714986 9.770023 10.051979 -15.821104 -11.381662 -22.268520 0.645718 -4.464594 -60.189524 -6.768984 22.470557 9.044902 -13.980131 7.305278 -10.368665 -7.362221 14.234507 23.721962 7.848924 -0.059556 55.306697 6.716675 18.830301 -2.552783 13.024340 7.120110 5.828810 3.338585 8.462444 
0.445552 0.174272 0.992422 89.235641 2.744784 93.415855 4.617918 3.707518 -1.584962 3.258966 -3.083239 -5.860901 -0.471724 10.309818 -3.754373 0.000000 -0.000000 0.000000 -1.433078 -1.433558 -5.205824 -1.371630 3.278886 1.327257 4.676229 -5.388561 -3.791228 0.000000 -0.000000 0.000000 -1.688291 1.311943 0.380624 1.832152 -3.328513 5.450763 -1.221599 1.765962 -6.363542 0.626225 -13.625287 9.816032 9.955941 -15.940817 -11.323076 -22.340073 0.943582 -4.790788 -59.913929 -6.722038 22.702192 8.803009 -14.218714 7.552442 -10.207021 -7.403315 14.473692 23.780502 7.713169 -0.099189 55.499874 6.949456 18.986795 -2.353954 12.858203 7.241007 5.743824 3.330053 8.709794 
0.445809 0.174662 0.992270 89.056006 2.666201 93.449112 4.486497 3.710875 -1.555145 3.262671 -3.023886 -5.884703 -0.408353 10.400808 -3.821174 0.000000 -0.000000 0.000000 -1.512597 -1.384843 -5.279656 -1.429009 3.380356 1.363874 4.746695 -5.329968 -3.767383 0.000000 -0.000000 0.000000 -1.535620 1.416467 0.292188 1.670358 -3.179077 5.378394 -1.498889 1.912629 -6.459308 0.361911 -13.386119 10.008938 9.887947 -15.937101 -11.382698 -22.252594 1.229311 -4.985461 -59.811586 -6.562502 22.880877 8.721169 -14.876318 7.840031 -10.373051 -7.151714 14.798526 23.827912 7.753005 -0.156317 55.629832 7.159710 19.144372 -2.179165 12.831715 7.404561 5.916810 3.190597 8.909467 
0.446071 0.175046 0.992213 88.905570 2.583925 93.474346 4.356620 3.741341 -1.535641 3.249209 -2.939405 -5.902618 -0.367377 10.431967 -3.845801 0.000000 -0.000000 0.000000 -1.611450 -1.440487 -5.335824 -1.447567 3.465970 1.379182 4.816244 -5.193510 -3.761617 0.000000 -0.000000 0.000000 -1.343860 1.481353 0.256211 1.549229 -3.098008 5.211655 -1.664081 1.946391 -6.433847 0.106997 -13.375773 9.916809 9.533191 -15.881939 -11.366684 -22.143828 1.468746 -5.074707 -59.894011 -6.374788 22.991103 8.689883 -15.211211 8.214525 -10.309245 -7.098132 14.899221 23.731939 7.816803 -0.270474 55.785013 7.439733 19.326520 -2.045424 12.921625 7.664127 5.953160 3.121068 8.973932 
